<svg width="140" height="28" viewBox="0 0 140 28" fill="white" xmlns="http://www.w3.org/2000/svg">
<path d="M4.77166 0.651184H2.73328V6.46512H0V8.23255H2.73328V22.2325H4.77166V8.23255H7.9682V6.46512H4.77166V0.651184Z" fill="white"/>
<path d="M14.2223 6.74418C13.5274 7.2093 12.8788 7.86046 12.2766 8.79069V6.51163H10.2382V22.2325H12.2766V16.8837C12.2766 14.1395 12.4156 12.3256 12.6472 11.4418C12.9715 10.2791 13.4348 9.39533 14.0833 8.8372C14.6856 8.27906 15.3342 7.99999 16.0291 7.99999C16.307 7.99999 16.6776 8.09301 17.0946 8.27906L18.1601 6.55814C17.5115 6.18605 16.9093 6 16.3533 6C15.6121 6.09302 14.9172 6.27907 14.2223 6.74418Z" fill="white"/>
<path d="M20.5691 0C20.1058 0 19.7352 0.186046 19.4109 0.511626C19.0866 0.837206 18.9013 1.25581 18.9013 1.72092C18.9013 2.18604 19.0866 2.55813 19.4109 2.88371C19.7352 3.20929 20.1058 3.39533 20.5691 3.39533C21.0323 3.39533 21.403 3.20929 21.7272 2.88371C22.0515 2.51162 22.2368 2.13953 22.2368 1.67441C22.2368 1.2093 22.0515 0.837206 21.7272 0.465114C21.403 0.186046 21.0323 0 20.5691 0Z" fill="white"/>
<path d="M21.5881 6.46509H19.5497V22.186H21.5881V6.46509Z" fill="white"/>
<path d="M34.0502 6.09302C32.753 6.09302 31.5949 6.37209 30.5757 6.93022C29.5565 7.48836 28.6299 8.32557 27.8424 9.39533V6.51162H25.804V27.9999H27.8424V19.5348C28.6763 20.5581 29.6491 21.3488 30.6683 21.8604C31.6875 22.372 32.8457 22.6511 34.0965 22.6511C36.3202 22.6511 38.2196 21.8604 39.7947 20.2325C41.3698 18.6046 42.1574 16.6511 42.1574 14.3255C42.1574 12.0465 41.3698 10.1395 39.7947 8.51161C38.1733 6.88371 36.2739 6.09302 34.0502 6.09302ZM39.2388 17.5348C38.6828 18.5581 37.8953 19.3488 36.9688 19.9069C35.9959 20.465 34.9767 20.7441 33.9112 20.7441C32.7994 20.7441 31.7802 20.465 30.761 19.9069C29.7418 19.3488 29.0006 18.6046 28.491 17.6744C27.9814 16.6976 27.7034 15.6279 27.7034 14.4651C27.7034 12.6511 28.3057 11.1163 29.5102 9.90695C30.7146 8.69766 32.1508 8.09301 33.9112 8.09301C35.023 8.09301 36.0885 8.37208 37.0151 8.93022C37.9416 9.48835 38.7292 10.279 39.2851 11.2558C39.841 12.2325 40.119 13.3023 40.119 14.4186C40.0726 15.4883 39.7947 16.5581 39.2388 17.5348Z" fill="white"/>
<path d="M54.9899 10.279C54.9899 10.279 54.9899 10.2325 54.9899 10.279C56.7966 9.20924 57.7232 7.76739 57.7232 5.90693C57.7232 4.9767 57.4452 4.09298 56.9356 3.20926C56.426 2.37206 55.6848 1.67439 54.7119 1.16276C53.7391 0.651136 52.7199 0.418579 51.608 0.418579C50.0793 0.418579 48.7821 0.883693 47.6703 1.81392C46.8827 2.51159 46.2805 3.39531 45.8172 4.46507C45.5392 5.11623 46.0488 5.86042 46.7901 5.86042H46.8827C47.2997 5.86042 47.6703 5.62786 47.8092 5.25577C48.2262 4.32554 48.6895 3.67438 49.2454 3.25578C49.894 2.74415 50.6815 2.46508 51.608 2.46508C52.7199 2.46508 53.6464 2.79066 54.3876 3.48833C55.1289 4.18601 55.4995 4.9767 55.4995 5.90693C55.4995 6.51158 55.3142 7.11623 54.9436 7.62785C54.5729 8.13948 54.017 8.60459 53.2295 8.93017C52.9515 9.06971 52.6272 9.16273 52.3029 9.25575C51.2838 9.48831 50.5888 10.372 50.5888 11.3953C52.2103 11.4883 53.4611 11.7209 54.2487 12.0929C55.0362 12.465 55.6385 13.0232 56.1017 13.7208C56.565 14.465 56.7966 15.2092 56.7966 16.0464C56.7966 17.3022 56.3334 18.372 55.4068 19.3022C54.4803 20.2324 53.2295 20.6976 51.7007 20.6976C50.3572 20.6976 49.2454 20.3255 48.3652 19.5348C47.8092 19.0232 47.346 18.279 47.0217 17.2557C46.8827 16.8371 46.5121 16.558 46.0488 16.558C45.3539 16.558 44.8443 17.2092 45.076 17.9069C45.4929 19.3022 46.1878 20.4185 47.1607 21.2092C48.3652 22.2789 49.8939 22.7906 51.747 22.7906C53.0905 22.7906 54.3413 22.5115 55.4068 21.9069C56.5187 21.3022 57.3526 20.465 58.0011 19.3487C58.6497 18.2325 58.974 17.1162 58.974 15.9069C58.974 14.5115 58.5107 13.2557 57.5842 12.1395C56.843 11.2557 56.0091 10.6511 54.9899 10.279Z" fill="white"/>
<path d="M68.1004 9.8604C67.4055 9.8604 66.7106 9.99994 65.923 10.2325L70.5094 3.25578C71.1579 2.27904 70.88 0.976719 69.9071 0.37207L63.4677 10.0464C62.5412 11.3953 61.9389 12.5581 61.5683 13.4883C61.1977 14.465 61.0587 15.3488 61.0587 16.2325C61.0587 17.3953 61.3367 18.5115 61.8926 19.5348C62.4485 20.558 63.2361 21.3487 64.2553 21.9069C65.2281 22.465 66.34 22.7441 67.4981 22.7441C68.7026 22.7441 69.8145 22.465 70.88 21.8604C71.9455 21.2557 72.7331 20.5115 73.289 19.4883C73.8449 18.5115 74.1229 17.3953 74.1229 16.186C74.1229 14.4185 73.5206 12.8836 72.3624 11.6743C71.2043 10.4651 69.7681 9.8604 68.1004 9.8604ZM70.741 19.3952C69.9071 20.2325 68.7953 20.6976 67.5908 20.6976C66.34 20.6976 65.2744 20.2325 64.3942 19.3487C63.5604 18.5115 63.0971 17.3953 63.0971 16.2325C63.0971 14.9767 63.514 13.9534 64.3942 13.0697C65.2281 12.2325 66.34 11.7674 67.5445 11.7674C68.7953 11.7674 69.8145 12.186 70.6947 13.0697C71.5749 13.9534 71.9918 15.0232 71.9918 16.2325C72.0382 17.4418 71.6212 18.5115 70.741 19.3952Z" fill="white"/>
<path d="M91.9585 14.9302C92.0512 14.7907 92.1901 14.6046 92.2828 14.4651C92.7924 13.5814 93.024 12.6511 93.024 11.6744C93.024 10.6976 92.7924 9.76742 92.2828 8.8837C91.7732 7.99999 91.1246 7.30231 90.2444 6.8372C89.4105 6.37209 88.484 6.09302 87.4648 6.09302C85.8897 6.09302 84.5926 6.65116 83.527 7.72092C82.4615 8.79068 81.9056 10.1395 81.9056 11.7209C81.9056 12.7907 82.1372 13.7209 82.6005 14.5581C83.0638 15.3953 83.7587 16.0465 84.6389 16.5581C85.5191 17.0697 86.4456 17.3023 87.4648 17.3023C88.4377 17.3023 89.3642 17.0697 90.1981 16.5581C90.3371 16.4651 90.4761 16.372 90.615 16.279L94.0895 19.7674C94.2749 19.9534 94.5065 20.0464 94.7381 20.0464C94.9697 20.0464 95.2014 19.9534 95.3867 19.7674C95.7573 19.3953 95.7573 18.8372 95.3867 18.4651L91.9585 14.9302ZM89.4105 15.0697C88.8083 15.3953 88.1597 15.5814 87.5111 15.5814C86.8162 15.5814 86.1677 15.3953 85.5654 15.0697C84.9632 14.7441 84.4536 14.279 84.1293 13.6744C83.805 13.0697 83.6197 12.4186 83.6197 11.7209C83.6197 10.6046 83.9903 9.6744 84.7315 8.93022C85.4728 8.18603 86.3993 7.81394 87.5111 7.81394C88.206 7.81394 88.8546 7.99999 89.4569 8.32557C90.0591 8.65115 90.5224 9.16277 90.893 9.76742C91.2636 10.3721 91.4026 11.0232 91.4026 11.7209C91.4026 12.4186 91.2173 13.0697 90.893 13.6744C90.4761 14.2325 90.0128 14.6976 89.4105 15.0697Z" fill="white"/>
<path d="M93.0242 1.95351C91.3101 0.976772 89.457 0.511658 87.465 0.511658C84.3611 0.511658 81.7205 1.58142 79.5894 3.72095C77.4584 5.86047 76.3929 8.55814 76.3929 11.7209C76.3929 13.8139 76.8562 15.7209 77.829 17.3953C78.8019 19.0697 80.1454 20.372 81.9058 21.3953C83.6662 22.372 85.5656 22.8837 87.5576 22.8837C88.7621 22.8837 89.9203 22.6976 91.0321 22.3255C91.7734 22.093 91.9587 21.1627 91.4027 20.6046C91.1248 20.3255 90.7078 20.2325 90.3372 20.372C89.4107 20.6976 88.4842 20.8372 87.5113 20.8372C85.9362 20.8372 84.4074 20.4651 82.9713 19.6744H83.7588C84.1295 19.6744 84.4537 19.3488 84.4537 18.9767C84.4537 18.6046 84.1295 18.279 83.7588 18.279H81.0719C80.516 17.7209 80.0064 17.1162 79.6358 16.4186C78.8482 15.0697 78.4776 13.5349 78.4776 11.8139C78.4776 9.39534 79.2188 7.39535 80.7013 5.72094H83.4809C83.8515 5.72094 84.1758 5.39536 84.1758 5.02327C84.1758 4.65118 83.8515 4.32559 83.4809 4.32559H82.2301C83.7125 3.25583 85.4729 2.6977 87.465 2.6977C89.0864 2.6977 90.6152 3.06979 92.005 3.86048C93.3948 4.65118 94.5066 5.76745 95.2942 7.2093C95.9428 8.37209 96.3597 9.58139 96.4524 10.8372H94.9699C94.5993 10.8372 94.275 11.1628 94.275 11.5349C94.275 11.907 94.5993 12.2325 94.9699 12.2325H96.4524C96.406 13.0697 96.2671 13.9069 95.9891 14.6976C95.8501 15.0697 95.9428 15.4883 96.2207 15.7674C96.7766 16.3255 97.6569 16.093 97.9348 15.3953C98.3518 14.2325 98.5834 13.0232 98.5834 11.7674C98.5834 9.81394 98.0738 7.95349 97.0546 6.18605C96.0817 4.27908 94.7383 2.93025 93.0242 1.95351Z" fill="white"/>
<path d="M102.428 19.2093C101.965 19.2093 101.594 19.3488 101.27 19.6744C100.946 20 100.807 20.3721 100.807 20.8372C100.807 21.3023 100.946 21.6744 101.27 22C101.594 22.3256 101.965 22.4651 102.428 22.4651C102.892 22.4651 103.262 22.3256 103.587 22C103.911 21.6744 104.05 21.3023 104.05 20.8372C104.05 20.3721 103.911 20 103.587 19.6744C103.262 19.3953 102.845 19.2093 102.428 19.2093Z" fill="white"/>
<path d="M115.261 9.02317C117.485 9.02317 119.199 9.86038 120.496 11.5813L121.978 10.6511C121.561 9.90689 121.005 9.30224 120.403 8.83713C119.801 8.37201 119.013 7.99992 118.133 7.67434C117.253 7.39527 116.326 7.25574 115.354 7.25574C113.825 7.25574 112.435 7.58132 111.23 8.27899C109.98 8.97666 109.007 9.90689 108.312 11.1162C107.617 12.3255 107.246 13.6278 107.246 15.0231C107.246 17.1162 107.988 18.8836 109.516 20.372C111.045 21.8138 112.945 22.558 115.215 22.558C116.697 22.558 118.04 22.2789 119.199 21.6743C120.357 21.1161 121.283 20.2789 121.978 19.2557L120.496 18.2789C119.152 19.9999 117.392 20.8371 115.261 20.8371C114.103 20.8371 113.037 20.558 112.111 20.0464C111.184 19.5348 110.443 18.7906 109.887 17.8603C109.331 16.9301 109.099 15.9069 109.099 14.8836C109.099 13.2557 109.702 11.8604 110.86 10.7441C112.018 9.58131 113.5 9.02317 115.261 9.02317Z" fill="white"/>
<path d="M137.961 9.67433C136.479 8.04643 134.625 7.25574 132.402 7.25574C130.178 7.25574 128.325 8.09294 126.843 9.72084C125.499 11.2092 124.851 12.9301 124.851 14.9766C124.851 17.0231 125.545 18.7906 126.982 20.3254C128.371 21.8603 130.224 22.6045 132.448 22.6045C134.672 22.6045 136.479 21.8603 137.868 20.3254C139.258 18.7906 139.999 17.0231 139.999 14.9766C139.953 12.8836 139.304 11.1627 137.961 9.67433ZM137.312 17.9069C136.803 18.8371 136.108 19.5348 135.274 19.9999C134.394 20.5115 133.467 20.7441 132.448 20.7441C131.429 20.7441 130.456 20.5115 129.622 19.9999C128.788 19.4882 128.093 18.7906 127.584 17.9069C127.074 16.9766 126.843 15.9999 126.843 14.9766C126.843 13.3487 127.399 11.9534 128.51 10.7906C129.622 9.62782 130.966 9.06968 132.494 9.06968C134.023 9.06968 135.367 9.62782 136.479 10.7906C137.59 11.9534 138.146 13.3487 138.146 14.9766C138.054 15.9999 137.822 16.9766 137.312 17.9069Z" fill="white"/>
</svg>
